 <svg  version="1.0" xmlns="http://www.w3.org/2000/svg"  width="96.000000pt" height="118.000000pt" viewBox="0 0 96.000000 118.000000"  preserveAspectRatio="xMidYMid meet">  <g transform="translate(0.000000,118.000000) scale(0.100000,-0.100000)" fill="#ffffff" stroke="none"> <path d="M413 1163 c-33 -19 -360 -318 -394 -361 -15 -20 -19 -41 -19 -103 0 -43 5 -89 11 -103 14 -30 357 -334 407 -360 40 -20 108 -17 143 8 60 42 378 331 388 352 13 30 15 153 2 187 -11 28 -359 354 -404 379 -41 22 -94 22 -134 1z m263 -250 c85 -80 154 -150 154 -154 0 -8 -240 -225 -294 -267 -37 -28 -85 -28 -122 0 -16 12 -87 74 -159 137 -72 63 -132 117 -135 119 -7 5 287 288 324 312 22 14 35 16 53 9 14 -5 94 -75 179 -156z"/> <path d="M442 964 c-28 -19 -30 -74 -4 -97 42 -38 102 -8 102 50 0 54 -52 80 -98 47z"/> <path d="M523 732 c-89 -78 -129 -119 -120 -124 24 -15 127 -9 165 11 45 23 87 66 101 104 17 45 12 128 -8 126 -3 0 -66 -53 -138 -117z"/> <path d="M282 804 c-28 -19 -30 -74 -4 -97 42 -38 102 -8 102 50 0 54 -52 80 -98 47z"/> <path d="M46 310 c-40 -44 -51 -77 -41 -117 11 -46 42 -78 102 -110 103 -54 177 -68 373 -68 196 0 270 14 373 68 74 39 102 77 102 139 0 41 -5 52 -40 88 -21 22 -44 40 -50 40 -7 0 -29 -15 -50 -33 l-38 -33 37 -22 c49 -29 46 -58 -9 -89 -139 -79 -511 -79 -650 0 -55 31 -58 60 -9 89 l37 22 -38 33 c-21 18 -44 33 -51 33 -6 0 -28 -18 -48 -40z"/> </g> </svg> 